<?xml version="1.0" encoding="utf-8"?>
<!-- Generator: Adobe Illustrator 22.1.0, SVG Export Plug-In . SVG Version: 6.00 Build 0)  -->
<svg version="1.1" xmlns="http://www.w3.org/2000/svg" xmlns:xlink="http://www.w3.org/1999/xlink" x="0px" y="0px" width="725.9px"
	 height="723.9px" viewBox="0 0 725.9 723.9" style="enable-background:new 0 0 725.9 723.9;" xml:space="preserve">
<style type="text/css">
	.st0{fill:#232323;}
	.st1{fill:#FFFFFF;stroke:#232323;}
</style>
<rect class="st0" width="725.9" height="723.9"/>
<g>
	<polyline class="st1" points="172.5,554 219.2,415.3 330,415.8 366.6,328.7 701.8,328.7 701.8,211.5 399.3,211.5 398.5,199.6 
		282.3,199.6 279.1,183 145.4,183 113.9,183 96.2,197.2 113.9,197.2 113.9,257.6 105.9,257.6 96.2,257.6 78.6,288.1 78.6,304.6 
		113.9,304.6 21.1,514.8 21.1,554 172.5,554 	"/>
	<polygon class="st0" points="301.8,389.3 229.6,389.3 254,328.7 327.2,328.7 	"/>
	<ellipse class="st0" cx="134.7" cy="204.7" rx="8.5" ry="8.6"/>
</g>
</svg>
